<?xml version="1.0" standalone="no"?>
<!DOCTYPE svg PUBLIC "-//W3C//DTD SVG 20010904//EN"
 "http://www.w3.org/TR/2001/REC-SVG-20010904/DTD/svg10.dtd">
<svg version="1.0" xmlns="http://www.w3.org/2000/svg"
 width="500.000000pt" height="500.000000pt" viewBox="0 0 500.000000 500.000000"
 preserveAspectRatio="xMidYMid meet">
<metadata>
Created by potrace 1.11, written by Peter Selinger 2001-2013
</metadata>
<g transform="translate(0.000000,500.000000) scale(0.100000,-0.100000)"
fill="#000000" stroke="none">
<path d="M2440 4484 c-179 -24 -421 -95 -470 -139 -8 -7 -69 -41 -135 -75
-140 -72 -199 -115 -291 -213 -46 -48 -78 -94 -101 -145 -31 -66 -53 -142 -41
-142 2 0 48 43 102 95 54 52 106 100 116 105 17 9 18 7 8 -23 -46 -146 -49
-168 -46 -355 2 -147 6 -181 16 -177 8 3 16 5 18 5 2 0 4 6 4 14 0 13 180 189
186 183 2 -2 0 -16 -4 -33 -5 -18 -19 -34 -38 -43 -70 -33 -104 -92 -104 -178
0 -72 37 -159 73 -172 21 -8 25 -18 31 -72 17 -146 67 -213 219 -290 77 -39
87 -47 87 -71 0 -14 -11 -40 -25 -56 -14 -17 -25 -35 -25 -40 0 -18 73 -18
123 0 26 10 49 18 51 18 1 0 13 -21 25 -46 26 -50 44 -62 66 -44 12 10 16 9
21 -4 8 -20 31 -20 78 -1 22 9 36 11 36 5 0 -6 -10 -14 -23 -19 -13 -5 -29
-16 -37 -26 -11 -13 -24 -15 -79 -9 -36 3 -74 8 -84 10 -9 1 -25 -5 -35 -16
-11 -12 -38 -20 -82 -24 -180 -17 -160 -6 -231 -129 -78 -135 -126 -196 -162
-205 -29 -8 -32 -12 -37 -58 -5 -41 -16 -63 -68 -131 -34 -45 -62 -86 -62 -90
0 -4 -35 -52 -78 -106 -94 -117 -147 -215 -136 -249 9 -31 153 -246 218 -328
56 -70 78 -107 92 -155 7 -21 21 -36 51 -50 24 -11 44 -25 47 -31 2 -5 -7 -57
-19 -114 -13 -57 -21 -108 -18 -113 7 -11 163 -87 178 -87 9 0 8 -14 -1 -52
-21 -85 -41 -264 -43 -385 l-2 -113 239 0 239 0 18 63 c10 34 20 67 21 72 1 6
18 57 39 115 20 58 39 113 42 124 5 16 13 17 71 11 36 -4 71 -9 78 -12 14 -5
96 -196 119 -278 9 -33 18 -68 21 -77 5 -17 26 -18 251 -18 l246 0 -6 58 c-4
31 -11 125 -17 207 -6 83 -15 173 -19 202 l-8 52 41 6 c23 4 69 21 104 37 54
27 62 34 62 59 0 15 -5 40 -12 56 -6 15 -14 51 -18 78 -16 115 -93 478 -123
580 -31 108 -32 114 -31 305 l2 195 36 87 c40 95 108 223 244 458 50 85 121
216 159 290 38 74 96 178 129 230 64 101 102 172 209 394 40 84 65 147 61 158
-2 11 0 31 6 44 8 17 8 27 -2 39 -10 12 -8 16 13 24 18 7 31 25 46 68 12 32
25 65 29 73 5 8 39 75 77 149 57 113 66 138 59 160 -19 53 -67 37 -125 -42
-26 -36 -28 -37 -45 -20 -10 11 -32 18 -56 18 l-38 0 0 75 c0 122 -23 175 -71
163 -11 -3 -19 -13 -20 -22 -1 -21 -7 -62 -19 -136 -6 -33 -12 -71 -14 -85 -2
-14 -25 -48 -50 -75 l-46 -50 5 -65 c3 -36 8 -73 11 -82 3 -11 -13 -39 -42
-75 -55 -68 -59 -71 -61 -41 -1 13 -12 63 -24 111 -16 68 -31 100 -59 136 -31
39 -39 58 -43 107 -6 65 -32 130 -55 139 -25 9 -32 -9 -17 -39 27 -52 8 -38
-23 16 -53 94 -124 162 -220 211 -48 25 -103 50 -123 56 -20 6 -45 22 -57 36
-27 31 -45 33 -292 39 -144 3 -236 0 -310 -10z m625 -1815 c-10 -15 -25 -10
-19 6 4 8 10 12 15 9 5 -3 7 -10 4 -15z m-232 -84 c12 -8 16 -15 9 -15 -14 0
-52 36 -52 48 0 20 15 22 18 3 2 -11 13 -28 25 -36z m-108 -9 c11 -8 15 -16 8
-16 -6 0 -15 5 -18 10 -3 6 -15 10 -26 10 -10 0 -19 7 -19 15 0 17 16 11 55
-19z m-768 -783 c-8 -15 -40 -113 -71 -218 -31 -104 -58 -191 -60 -192 -2 -2
-6 11 -10 29 -3 17 -23 55 -42 84 l-36 53 26 26 c15 15 26 37 26 52 0 19 23
49 87 114 48 49 88 87 91 85 2 -2 -3 -17 -11 -33z"/>
</g>
</svg>
